<?xml version="1.0" encoding="UTF-8" standalone="no"?>
<svg
   xmlns:osb="http://www.openswatchbook.org/uri/2009/osb"
   xmlns:dc="http://purl.org/dc/elements/1.1/"
   xmlns:cc="http://creativecommons.org/ns#"
   xmlns:rdf="http://www.w3.org/1999/02/22-rdf-syntax-ns#"
   xmlns:svg="http://www.w3.org/2000/svg"
   xmlns="http://www.w3.org/2000/svg"
   xmlns:xlink="http://www.w3.org/1999/xlink"
   xmlns:sodipodi="http://sodipodi.sourceforge.net/DTD/sodipodi-0.dtd"
   xmlns:inkscape="http://www.inkscape.org/namespaces/inkscape"
   viewBox="0 0 40.892923 74.288806"
   width="204.46461"
   height="371.44403"
   version="1.1"
   id="svg178"
   sodipodi:docname="icons8-instagram-old-left.svg"
   inkscape:version="1.0.2 (e86c870879, 2021-01-15, custom)">
  <metadata
     id="metadata184">
    <rdf:RDF>
      <cc:Work
         rdf:about="">
        <dc:format>image/svg+xml</dc:format>
        <dc:type
           rdf:resource="http://purl.org/dc/dcmitype/StillImage" />
        <dc:title></dc:title>
      </cc:Work>
    </rdf:RDF>
  </metadata>
  <defs
     id="defs182">
    <linearGradient
       id="linearGradient2965"
       osb:paint="solid">
      <stop
         style="stop-color:#000000;stop-opacity:0.14117648;"
         offset="0"
         id="stop2963" />
    </linearGradient>
    <linearGradient
       id="linearGradient1027"
       osb:paint="solid">
      <stop
         style="stop-color:#000000;stop-opacity:1;"
         offset="0"
         id="stop1025" />
    </linearGradient>
    <clipPath
       clipPathUnits="userSpaceOnUse"
       id="clipPath2971">
      <rect
         style="fill:url(#linearGradient2975);fill-opacity:1;fill-rule:evenodd;stroke-width:0.2"
         id="rect2973"
         width="52.649639"
         height="100.18766"
         x="0"
         y="0.17038718"
         ry="0" />
    </clipPath>
    <linearGradient
       inkscape:collect="always"
       xlink:href="#linearGradient2965"
       id="linearGradient2975"
       gradientUnits="userSpaceOnUse"
       x1="0"
       y1="50.264217"
       x2="52.649639"
       y2="50.264217" />
    <clipPath
       clipPathUnits="userSpaceOnUse"
       id="clipPath2977">
      <rect
         style="fill:url(#linearGradient2981);fill-opacity:1;fill-rule:evenodd;stroke-width:0.2"
         id="rect2979"
         width="52.649639"
         height="100.18766"
         x="0"
         y="0.17038718"
         ry="0" />
    </clipPath>
    <linearGradient
       inkscape:collect="always"
       xlink:href="#linearGradient2965"
       id="linearGradient2981"
       gradientUnits="userSpaceOnUse"
       x1="0"
       y1="50.264217"
       x2="52.649639"
       y2="50.264217" />
    <clipPath
       clipPathUnits="userSpaceOnUse"
       id="clipPath2983">
      <rect
         style="fill:url(#linearGradient2987);fill-opacity:1;fill-rule:evenodd;stroke-width:0.2"
         id="rect2985"
         width="52.649639"
         height="100.18766"
         x="0"
         y="0.17038718"
         ry="0" />
    </clipPath>
    <linearGradient
       inkscape:collect="always"
       xlink:href="#linearGradient2965"
       id="linearGradient2987"
       gradientUnits="userSpaceOnUse"
       x1="0"
       y1="50.264217"
       x2="52.649639"
       y2="50.264217" />
    <clipPath
       clipPathUnits="userSpaceOnUse"
       id="clipPath2989">
      <rect
         style="fill:url(#linearGradient2993);fill-opacity:1;fill-rule:evenodd;stroke-width:0.2"
         id="rect2991"
         width="52.649639"
         height="100.18766"
         x="0"
         y="0.17038718"
         ry="0" />
    </clipPath>
    <linearGradient
       inkscape:collect="always"
       xlink:href="#linearGradient2965"
       id="linearGradient2993"
       gradientUnits="userSpaceOnUse"
       x1="0"
       y1="50.264217"
       x2="52.649639"
       y2="50.264217" />
    <clipPath
       clipPathUnits="userSpaceOnUse"
       id="clipPath2995">
      <rect
         style="fill:url(#linearGradient2999);fill-opacity:1;fill-rule:evenodd;stroke-width:0.2"
         id="rect2997"
         width="52.649639"
         height="100.18766"
         x="0"
         y="0.17038718"
         ry="0" />
    </clipPath>
    <linearGradient
       inkscape:collect="always"
       xlink:href="#linearGradient2965"
       id="linearGradient2999"
       gradientUnits="userSpaceOnUse"
       x1="0"
       y1="50.264217"
       x2="52.649639"
       y2="50.264217" />
    <clipPath
       clipPathUnits="userSpaceOnUse"
       id="clipPath3001">
      <rect
         style="fill:url(#linearGradient3005);fill-opacity:1;fill-rule:evenodd;stroke-width:0.2"
         id="rect3003"
         width="52.649639"
         height="100.18766"
         x="0"
         y="0.17038718"
         ry="0" />
    </clipPath>
    <linearGradient
       inkscape:collect="always"
       xlink:href="#linearGradient2965"
       id="linearGradient3005"
       gradientUnits="userSpaceOnUse"
       x1="0"
       y1="50.264217"
       x2="52.649639"
       y2="50.264217" />
    <clipPath
       clipPathUnits="userSpaceOnUse"
       id="clipPath3007">
      <rect
         style="fill:url(#linearGradient3011);fill-opacity:1;fill-rule:evenodd;stroke-width:0.2"
         id="rect3009"
         width="52.649639"
         height="100.18766"
         x="0"
         y="0.17038718"
         ry="0" />
    </clipPath>
    <linearGradient
       inkscape:collect="always"
       xlink:href="#linearGradient2965"
       id="linearGradient3011"
       gradientUnits="userSpaceOnUse"
       x1="0"
       y1="50.264217"
       x2="52.649639"
       y2="50.264217" />
    <clipPath
       clipPathUnits="userSpaceOnUse"
       id="clipPath3013">
      <rect
         style="fill:url(#linearGradient3017);fill-opacity:1;fill-rule:evenodd;stroke-width:0.2"
         id="rect3015"
         width="52.649639"
         height="100.18766"
         x="0"
         y="0.17038718"
         ry="0" />
    </clipPath>
    <linearGradient
       inkscape:collect="always"
       xlink:href="#linearGradient2965"
       id="linearGradient3017"
       gradientUnits="userSpaceOnUse"
       x1="0"
       y1="50.264217"
       x2="52.649639"
       y2="50.264217" />
    <clipPath
       clipPathUnits="userSpaceOnUse"
       id="clipPath3019">
      <rect
         style="fill:url(#linearGradient3023);fill-opacity:1;fill-rule:evenodd;stroke-width:0.2"
         id="rect3021"
         width="52.649639"
         height="100.18766"
         x="0"
         y="0.17038718"
         ry="0" />
    </clipPath>
    <linearGradient
       inkscape:collect="always"
       xlink:href="#linearGradient2965"
       id="linearGradient3023"
       gradientUnits="userSpaceOnUse"
       x1="0"
       y1="50.264217"
       x2="52.649639"
       y2="50.264217" />
    <clipPath
       clipPathUnits="userSpaceOnUse"
       id="clipPath3025">
      <rect
         style="fill:url(#linearGradient3029);fill-opacity:1;fill-rule:evenodd;stroke-width:0.2"
         id="rect3027"
         width="52.649639"
         height="100.18766"
         x="0"
         y="0.17038718"
         ry="0" />
    </clipPath>
    <linearGradient
       inkscape:collect="always"
       xlink:href="#linearGradient2965"
       id="linearGradient3029"
       gradientUnits="userSpaceOnUse"
       x1="0"
       y1="50.264217"
       x2="52.649639"
       y2="50.264217" />
    <clipPath
       clipPathUnits="userSpaceOnUse"
       id="clipPath3031">
      <rect
         style="fill:url(#linearGradient3035);fill-opacity:1;fill-rule:evenodd;stroke-width:0.2"
         id="rect3033"
         width="52.649639"
         height="100.18766"
         x="0"
         y="0.17038718"
         ry="0" />
    </clipPath>
    <linearGradient
       inkscape:collect="always"
       xlink:href="#linearGradient2965"
       id="linearGradient3035"
       gradientUnits="userSpaceOnUse"
       x1="0"
       y1="50.264217"
       x2="52.649639"
       y2="50.264217" />
    <clipPath
       clipPathUnits="userSpaceOnUse"
       id="clipPath3037">
      <rect
         style="fill:url(#linearGradient3041);fill-opacity:1;fill-rule:evenodd;stroke-width:0.2"
         id="rect3039"
         width="52.649639"
         height="100.18766"
         x="0"
         y="0.17038718"
         ry="0" />
    </clipPath>
    <linearGradient
       inkscape:collect="always"
       xlink:href="#linearGradient2965"
       id="linearGradient3041"
       gradientUnits="userSpaceOnUse"
       x1="0"
       y1="50.264217"
       x2="52.649639"
       y2="50.264217" />
    <clipPath
       clipPathUnits="userSpaceOnUse"
       id="clipPath3043">
      <rect
         style="fill:url(#linearGradient3047);fill-opacity:1;fill-rule:evenodd;stroke-width:0.2"
         id="rect3045"
         width="52.649639"
         height="100.18766"
         x="0"
         y="0.17038718"
         ry="0" />
    </clipPath>
    <linearGradient
       inkscape:collect="always"
       xlink:href="#linearGradient2965"
       id="linearGradient3047"
       gradientUnits="userSpaceOnUse"
       x1="0"
       y1="50.264217"
       x2="52.649639"
       y2="50.264217" />
    <clipPath
       clipPathUnits="userSpaceOnUse"
       id="clipPath3049">
      <rect
         style="fill:url(#linearGradient3053);fill-opacity:1;fill-rule:evenodd;stroke-width:0.2"
         id="rect3051"
         width="52.649639"
         height="100.18766"
         x="0"
         y="0.17038718"
         ry="0" />
    </clipPath>
    <linearGradient
       inkscape:collect="always"
       xlink:href="#linearGradient2965"
       id="linearGradient3053"
       gradientUnits="userSpaceOnUse"
       x1="0"
       y1="50.264217"
       x2="52.649639"
       y2="50.264217" />
    <clipPath
       clipPathUnits="userSpaceOnUse"
       id="clipPath3055">
      <rect
         style="fill:url(#linearGradient3059);fill-opacity:1;fill-rule:evenodd;stroke-width:0.2"
         id="rect3057"
         width="52.649639"
         height="100.18766"
         x="0"
         y="0.17038718"
         ry="0" />
    </clipPath>
    <linearGradient
       inkscape:collect="always"
       xlink:href="#linearGradient2965"
       id="linearGradient3059"
       gradientUnits="userSpaceOnUse"
       x1="0"
       y1="50.264217"
       x2="52.649639"
       y2="50.264217" />
    <clipPath
       clipPathUnits="userSpaceOnUse"
       id="clipPath3061">
      <rect
         style="fill:url(#linearGradient3065);fill-opacity:1;fill-rule:evenodd;stroke-width:0.2"
         id="rect3063"
         width="52.649639"
         height="100.18766"
         x="0"
         y="0.17038718"
         ry="0" />
    </clipPath>
    <linearGradient
       inkscape:collect="always"
       xlink:href="#linearGradient2965"
       id="linearGradient3065"
       gradientUnits="userSpaceOnUse"
       x1="0"
       y1="50.264217"
       x2="52.649639"
       y2="50.264217" />
    <clipPath
       clipPathUnits="userSpaceOnUse"
       id="clipPath3067">
      <rect
         style="fill:url(#linearGradient3071);fill-opacity:1;fill-rule:evenodd;stroke-width:0.2"
         id="rect3069"
         width="52.649639"
         height="100.18766"
         x="0"
         y="0.17038718"
         ry="0" />
    </clipPath>
    <linearGradient
       inkscape:collect="always"
       xlink:href="#linearGradient2965"
       id="linearGradient3071"
       gradientUnits="userSpaceOnUse"
       x1="0"
       y1="50.264217"
       x2="52.649639"
       y2="50.264217" />
    <clipPath
       clipPathUnits="userSpaceOnUse"
       id="clipPath3073">
      <rect
         style="fill:url(#linearGradient3077);fill-opacity:1;fill-rule:evenodd;stroke-width:0.2"
         id="rect3075"
         width="52.649639"
         height="100.18766"
         x="0"
         y="0.17038718"
         ry="0" />
    </clipPath>
    <linearGradient
       inkscape:collect="always"
       xlink:href="#linearGradient2965"
       id="linearGradient3077"
       gradientUnits="userSpaceOnUse"
       x1="0"
       y1="50.264217"
       x2="52.649639"
       y2="50.264217" />
    <clipPath
       clipPathUnits="userSpaceOnUse"
       id="clipPath3079">
      <rect
         style="fill:url(#linearGradient3083);fill-opacity:1;fill-rule:evenodd;stroke-width:0.2"
         id="rect3081"
         width="52.649639"
         height="100.18766"
         x="0"
         y="0.17038718"
         ry="0" />
    </clipPath>
    <linearGradient
       inkscape:collect="always"
       xlink:href="#linearGradient2965"
       id="linearGradient3083"
       gradientUnits="userSpaceOnUse"
       x1="0"
       y1="50.264217"
       x2="52.649639"
       y2="50.264217" />
    <clipPath
       clipPathUnits="userSpaceOnUse"
       id="clipPath3085">
      <rect
         style="fill:url(#linearGradient3089);fill-opacity:1;fill-rule:evenodd;stroke-width:0.2"
         id="rect3087"
         width="52.649639"
         height="100.18766"
         x="0"
         y="0.17038718"
         ry="0" />
    </clipPath>
    <linearGradient
       inkscape:collect="always"
       xlink:href="#linearGradient2965"
       id="linearGradient3089"
       gradientUnits="userSpaceOnUse"
       x1="0"
       y1="50.264217"
       x2="52.649639"
       y2="50.264217" />
    <clipPath
       clipPathUnits="userSpaceOnUse"
       id="clipPath3091">
      <rect
         style="fill:url(#linearGradient3095);fill-opacity:1;fill-rule:evenodd;stroke-width:0.2"
         id="rect3093"
         width="52.649639"
         height="100.18766"
         x="0"
         y="0.17038718"
         ry="0" />
    </clipPath>
    <linearGradient
       inkscape:collect="always"
       xlink:href="#linearGradient2965"
       id="linearGradient3095"
       gradientUnits="userSpaceOnUse"
       x1="0"
       y1="50.264217"
       x2="52.649639"
       y2="50.264217" />
    <clipPath
       clipPathUnits="userSpaceOnUse"
       id="clipPath3097">
      <rect
         style="fill:url(#linearGradient3101);fill-opacity:1;fill-rule:evenodd;stroke-width:0.2"
         id="rect3099"
         width="52.649639"
         height="100.18766"
         x="0"
         y="0.17038718"
         ry="0" />
    </clipPath>
    <linearGradient
       inkscape:collect="always"
       xlink:href="#linearGradient2965"
       id="linearGradient3101"
       gradientUnits="userSpaceOnUse"
       x1="0"
       y1="50.264217"
       x2="52.649639"
       y2="50.264217" />
    <clipPath
       clipPathUnits="userSpaceOnUse"
       id="clipPath3103">
      <rect
         style="fill:url(#linearGradient3107);fill-opacity:1;fill-rule:evenodd;stroke-width:0.2"
         id="rect3105"
         width="52.649639"
         height="100.18766"
         x="0"
         y="0.17038718"
         ry="0" />
    </clipPath>
    <linearGradient
       inkscape:collect="always"
       xlink:href="#linearGradient2965"
       id="linearGradient3107"
       gradientUnits="userSpaceOnUse"
       x1="0"
       y1="50.264217"
       x2="52.649639"
       y2="50.264217" />
    <clipPath
       clipPathUnits="userSpaceOnUse"
       id="clipPath3109">
      <rect
         style="fill:url(#linearGradient3113);fill-opacity:1;fill-rule:evenodd;stroke-width:0.2"
         id="rect3111"
         width="52.649639"
         height="100.18766"
         x="0"
         y="0.17038718"
         ry="0" />
    </clipPath>
    <linearGradient
       inkscape:collect="always"
       xlink:href="#linearGradient2965"
       id="linearGradient3113"
       gradientUnits="userSpaceOnUse"
       x1="0"
       y1="50.264217"
       x2="52.649639"
       y2="50.264217" />
    <clipPath
       clipPathUnits="userSpaceOnUse"
       id="clipPath3115">
      <rect
         style="fill:url(#linearGradient3119);fill-opacity:1;fill-rule:evenodd;stroke-width:0.2"
         id="rect3117"
         width="52.649639"
         height="100.18766"
         x="0"
         y="0.17038718"
         ry="0" />
    </clipPath>
    <linearGradient
       inkscape:collect="always"
       xlink:href="#linearGradient2965"
       id="linearGradient3119"
       gradientUnits="userSpaceOnUse"
       x1="0"
       y1="50.264217"
       x2="52.649639"
       y2="50.264217" />
    <clipPath
       clipPathUnits="userSpaceOnUse"
       id="clipPath3121">
      <rect
         style="fill:url(#linearGradient3125);fill-opacity:1;fill-rule:evenodd;stroke-width:0.2"
         id="rect3123"
         width="52.649639"
         height="100.18766"
         x="0"
         y="0.17038718"
         ry="0" />
    </clipPath>
    <linearGradient
       inkscape:collect="always"
       xlink:href="#linearGradient2965"
       id="linearGradient3125"
       gradientUnits="userSpaceOnUse"
       x1="0"
       y1="50.264217"
       x2="52.649639"
       y2="50.264217" />
    <clipPath
       clipPathUnits="userSpaceOnUse"
       id="clipPath966">
      <rect
         style="fill:#0000ff;fill-opacity:0.770909;stroke-width:0.2"
         id="rect968"
         width="40.892921"
         height="74.288803"
         x="11.41594"
         y="13.290199" />
    </clipPath>
    <clipPath
       clipPathUnits="userSpaceOnUse"
       id="clipPath970">
      <rect
         style="fill:#0000ff;fill-opacity:0.770909;stroke-width:0.2"
         id="rect972"
         width="40.892921"
         height="74.288803"
         x="11.41594"
         y="13.290199" />
    </clipPath>
    <clipPath
       clipPathUnits="userSpaceOnUse"
       id="clipPath974">
      <rect
         style="fill:#0000ff;fill-opacity:0.770909;stroke-width:0.2"
         id="rect976"
         width="40.892921"
         height="74.288803"
         x="11.41594"
         y="13.290199" />
    </clipPath>
    <clipPath
       clipPathUnits="userSpaceOnUse"
       id="clipPath978">
      <rect
         style="fill:#0000ff;fill-opacity:0.770909;stroke-width:0.2"
         id="rect980"
         width="40.892921"
         height="74.288803"
         x="11.41594"
         y="13.290199" />
    </clipPath>
    <clipPath
       clipPathUnits="userSpaceOnUse"
       id="clipPath982">
      <rect
         style="fill:#0000ff;fill-opacity:0.770909;stroke-width:0.2"
         id="rect984"
         width="40.892921"
         height="74.288803"
         x="11.41594"
         y="13.290199" />
    </clipPath>
    <clipPath
       clipPathUnits="userSpaceOnUse"
       id="clipPath986">
      <rect
         style="fill:#0000ff;fill-opacity:0.770909;stroke-width:0.2"
         id="rect988"
         width="40.892921"
         height="74.288803"
         x="11.41594"
         y="13.290199" />
    </clipPath>
    <clipPath
       clipPathUnits="userSpaceOnUse"
       id="clipPath990">
      <rect
         style="fill:#0000ff;fill-opacity:0.770909;stroke-width:0.2"
         id="rect992"
         width="40.892921"
         height="74.288803"
         x="11.41594"
         y="13.290199" />
    </clipPath>
    <clipPath
       clipPathUnits="userSpaceOnUse"
       id="clipPath994">
      <rect
         style="fill:#0000ff;fill-opacity:0.770909;stroke-width:0.2"
         id="rect996"
         width="40.892921"
         height="74.288803"
         x="11.41594"
         y="13.290199" />
    </clipPath>
    <clipPath
       clipPathUnits="userSpaceOnUse"
       id="clipPath998">
      <rect
         style="fill:#0000ff;fill-opacity:0.770909;stroke-width:0.2"
         id="rect1000"
         width="40.892921"
         height="74.288803"
         x="11.41594"
         y="13.290199" />
    </clipPath>
    <clipPath
       clipPathUnits="userSpaceOnUse"
       id="clipPath1002">
      <rect
         style="fill:#0000ff;fill-opacity:0.770909;stroke-width:0.2"
         id="rect1004"
         width="40.892921"
         height="74.288803"
         x="11.41594"
         y="13.290199" />
    </clipPath>
    <clipPath
       clipPathUnits="userSpaceOnUse"
       id="clipPath1006">
      <rect
         style="fill:#0000ff;fill-opacity:0.770909;stroke-width:0.2"
         id="rect1008"
         width="40.892921"
         height="74.288803"
         x="11.41594"
         y="13.290199" />
    </clipPath>
    <clipPath
       clipPathUnits="userSpaceOnUse"
       id="clipPath1010">
      <rect
         style="fill:#0000ff;fill-opacity:0.770909;stroke-width:0.2"
         id="rect1012"
         width="40.892921"
         height="74.288803"
         x="11.41594"
         y="13.290199" />
    </clipPath>
    <clipPath
       clipPathUnits="userSpaceOnUse"
       id="clipPath1014">
      <rect
         style="fill:#0000ff;fill-opacity:0.770909;stroke-width:0.2"
         id="rect1016"
         width="40.892921"
         height="74.288803"
         x="11.41594"
         y="13.290199" />
    </clipPath>
    <clipPath
       clipPathUnits="userSpaceOnUse"
       id="clipPath1018">
      <rect
         style="fill:#0000ff;fill-opacity:0.770909;stroke-width:0.2"
         id="rect1020"
         width="40.892921"
         height="74.288803"
         x="11.41594"
         y="13.290199" />
    </clipPath>
    <clipPath
       clipPathUnits="userSpaceOnUse"
       id="clipPath1022">
      <rect
         style="fill:#0000ff;fill-opacity:0.770909;stroke-width:0.2"
         id="rect1024"
         width="40.892921"
         height="74.288803"
         x="11.41594"
         y="13.290199" />
    </clipPath>
    <clipPath
       clipPathUnits="userSpaceOnUse"
       id="clipPath1026">
      <rect
         style="fill:#0000ff;fill-opacity:0.770909;stroke-width:0.2"
         id="rect1028"
         width="40.892921"
         height="74.288803"
         x="11.41594"
         y="13.290199" />
    </clipPath>
    <clipPath
       clipPathUnits="userSpaceOnUse"
       id="clipPath1030">
      <rect
         style="fill:#0000ff;fill-opacity:0.770909;stroke-width:0.2"
         id="rect1032"
         width="40.892921"
         height="74.288803"
         x="11.41594"
         y="13.290199" />
    </clipPath>
    <clipPath
       clipPathUnits="userSpaceOnUse"
       id="clipPath1034">
      <rect
         style="fill:#0000ff;fill-opacity:0.770909;stroke-width:0.2"
         id="rect1036"
         width="40.892921"
         height="74.288803"
         x="11.41594"
         y="13.290199" />
    </clipPath>
    <clipPath
       clipPathUnits="userSpaceOnUse"
       id="clipPath1038">
      <rect
         style="fill:#0000ff;fill-opacity:0.770909;stroke-width:0.2"
         id="rect1040"
         width="40.892921"
         height="74.288803"
         x="11.41594"
         y="13.290199" />
    </clipPath>
    <clipPath
       clipPathUnits="userSpaceOnUse"
       id="clipPath1042">
      <rect
         style="fill:#0000ff;fill-opacity:0.770909;stroke-width:0.2"
         id="rect1044"
         width="40.892921"
         height="74.288803"
         x="11.41594"
         y="13.290199" />
    </clipPath>
  </defs>
  <sodipodi:namedview
     pagecolor="#ffffff"
     bordercolor="#666666"
     borderopacity="1"
     objecttolerance="10"
     gridtolerance="10"
     guidetolerance="10"
     inkscape:pageopacity="0"
     inkscape:pageshadow="2"
     inkscape:window-width="1920"
     inkscape:window-height="1001"
     id="namedview180"
     showgrid="false"
     inkscape:zoom="1.0295339"
     inkscape:cx="192.9203"
     inkscape:cy="183.549"
     inkscape:window-x="-9"
     inkscape:window-y="-9"
     inkscape:window-maximized="1"
     inkscape:current-layer="svg178"
     inkscape:document-rotation="0"
     fit-margin-top="0"
     fit-margin-left="0"
     fit-margin-right="0"
     fit-margin-bottom="0" />
  <path
     fill="#f1bc19"
     d="m 77,12 a 1,1 0 1 0 0,2 1,1 0 1 0 0,-2 z"
     id="path100"
     clip-path="url(#clipPath3115)"
     transform="translate(-11.41594,-13.290199)" />
  <path
     fill="#f1bc19"
     d="m 83,11 a 4,4 0 1 0 0,8 4,4 0 1 0 0,-8 z"
     id="path104"
     clip-path="url(#clipPath3103)"
     transform="translate(-11.41594,-13.290199)" />
  <path
     fill="#ee3e54"
     d="m 87,22 a 2,2 0 1 0 0,4 2,2 0 1 0 0,-4 z"
     id="path106"
     clip-path="url(#clipPath3097)"
     transform="translate(-11.41594,-13.290199)" />
  <path
     fill="#ffffff"
     d="m 80,33 a 1,1 0 1 0 0,2 1,1 0 1 0 0,-2 z"
     id="path116"
     clip-path="url(#clipPath3067)"
     transform="translate(-11.41594,-13.290199)" />
  <g
     id="g146"
     clip-path="url(#clipPath3013)"
     transform="translate(-11.41594,-13.290199)">
    <path
       fill="#b77748"
       d="m 61.5,32.5 h 6 v 6 h -6 z"
       id="path142" />
    <path
       fill="#472b29"
       d="m 68,39 h -7 v -7 h 7 z m -6,-1 h 5 v -5 h -5 z"
       id="path144" />
  </g>
  <g
     id="g172"
     clip-path="url(#clipPath2977)"
     transform="translate(-11.41594,-13.290199)">
    <path
       fill="#472b29"
       d="m 55.805,54.414 c -0.097,0 -0.194,-0.027 -0.28,-0.086 C 55.296,54.174 55.236,53.863 55.391,53.634 56.116,52.56 56.5,51.303 56.5,50 c 0,-0.276 0.224,-0.5 0.5,-0.5 0.276,0 0.5,0.224 0.5,0.5 0,1.504 -0.443,2.954 -1.281,4.194 -0.097,0.143 -0.254,0.22 -0.414,0.22 z"
       id="path170" />
  </g>
  <g
     id="g1077"
     transform="translate(-11.41594,-13.290199)">
    <path
       fill="#ee3e54"
       d="m 13,27 a 2,2 0 1 0 0,4 2,2 0 1 0 0,-4 z"
       id="path98"
       clip-path="url(#clipPath1042)" />
    <path
       fill="#fce0a2"
       d="m 50,13 a 37,37 0 1 0 0,74 37,37 0 1 0 0,-74 z"
       id="path102"
       clip-path="url(#clipPath1038)" />
    <path
       fill="#fbcd59"
       d="m 81,74 a 2,2 0 1 0 0,4 2,2 0 1 0 0,-4 z M 15,59 a 4,4 0 1 0 0,8 4,4 0 1 0 0,-8 z"
       id="path108"
       clip-path="url(#clipPath1034)" />
    <path
       fill="#ee3e54"
       d="m 25,85 a 2,2 0 1 0 0,4 2,2 0 1 0 0,-4 z"
       id="path110"
       clip-path="url(#clipPath1030)" />
    <path
       fill="#ffffff"
       d="m 18.5,51 a 2.5,2.5 0 1 0 0,5 2.5,2.5 0 1 0 0,-5 z"
       id="path112"
       clip-path="url(#clipPath1026)" />
    <path
       fill="#f1bc19"
       d="m 21,66 a 1,1 0 1 0 0,2 1,1 0 1 0 0,-2 z"
       id="path114"
       clip-path="url(#clipPath1022)" />
    <path
       fill="#fed5b3"
       d="M 65,73 H 35 c -4.4,0 -8,-3.6 -8,-8 V 35 c 0,-4.4 3.6,-8 8,-8 h 30 c 4.4,0 8,3.6 8,8 v 30 c 0,4.4 -3.6,8 -8,8 z"
       id="path118"
       clip-path="url(#clipPath1018)" />
    <path
       fill="#d68f53"
       d="M 65.625,28 H 34.375 C 30.854,28 28,30.854 28,34.375 V 42 H 72 V 34.375 C 72,30.854 69.146,28 65.625,28 Z"
       id="path120"
       clip-path="url(#clipPath1014)" />
    <path
       fill="#472b29"
       d="M 61,41.938 H 28.064 c -0.276,0 -0.5,-0.224 -0.5,-0.5 0,-0.276 0.224,-0.5 0.5,-0.5 H 61 c 0.276,0 0.5,0.224 0.5,0.5 0,0.276 -0.224,0.5 -0.5,0.5 z m 11.001,0 H 66 c -0.276,0 -0.5,-0.224 -0.5,-0.5 0,-0.276 0.224,-0.5 0.5,-0.5 h 6.001 c 0.276,0 0.5,0.224 0.5,0.5 0,0.276 -0.224,0.5 -0.5,0.5 z"
       id="path122"
       clip-path="url(#clipPath1010)" />
    <path
       fill="#fefdef"
       d="m 50,39 a 11,11 0 1 0 0,22 11,11 0 1 0 0,-22 z"
       id="path124"
       clip-path="url(#clipPath1006)" />
    <path
       fill="#472b29"
       d="m 50,61.5 c -6.341,0 -11.5,-5.159 -11.5,-11.5 0,-6.341 5.159,-11.5 11.5,-11.5 6.341,0 11.5,5.159 11.5,11.5 0,6.341 -5.159,11.5 -11.5,11.5 z m 0,-22 c -5.79,0 -10.5,4.71 -10.5,10.5 0,5.79 4.71,10.5 10.5,10.5 5.79,0 10.5,-4.71 10.5,-10.5 0,-5.79 -4.71,-10.5 -10.5,-10.5 z"
       id="path126"
       clip-path="url(#clipPath1002)" />
    <g
       id="g130"
       clip-path="url(#clipPath998)">
      <path
         fill="#f15b6c"
         d="m 33,27.5 v 0 c -1.1,0 -2,0.9 -2,2 v 12 h 2 z"
         id="path128" />
    </g>
    <g
       id="g134"
       clip-path="url(#clipPath994)">
      <path
         fill="#8f9eb6"
         d="m 50,43 a 7,7 0 1 0 0,14 7,7 0 1 0 0,-14 z"
         id="path132" />
    </g>
    <g
       id="g140"
       clip-path="url(#clipPath990)">
      <path
         fill="#77cbd2"
         d="m 46.5,45 a 2.5,2.5 0 1 0 0,5 2.5,2.5 0 1 0 0,-5 z"
         id="path136" />
      <path
         fill="#472b29"
         d="m 46.5,50.5 c -1.654,0 -3,-1.346 -3,-3 0,-1.654 1.346,-3 3,-3 1.654,0 3,1.346 3,3 0,1.654 -1.346,3 -3,3 z m 0,-5 c -1.103,0 -2,0.897 -2,2 0,1.103 0.897,2 2,2 1.103,0 2,-0.897 2,-2 0,-1.103 -0.897,-2 -2,-2 z"
         id="path138" />
    </g>
    <g
       id="g150"
       clip-path="url(#clipPath986)">
      <path
         fill="#f9e65c"
         d="m 33,28 h 2 v 13 h -2 z"
         id="path148" />
    </g>
    <g
       id="g154"
       clip-path="url(#clipPath982)">
      <path
         fill="#a1d3a2"
         d="m 35,28 h 2 v 13 h -2 z"
         id="path152" />
    </g>
    <g
       id="g158"
       clip-path="url(#clipPath978)">
      <path
         fill="#39c2d8"
         d="m 37,28 h 2 v 13 h -2 z"
         id="path156" />
    </g>
    <g
       id="g162"
       clip-path="url(#clipPath974)">
      <path
         fill="#472b29"
         d="m 65,28.4 c 3.639,0 6.6,2.961 6.6,6.6 v 30 c 0,3.639 -2.961,6.6 -6.6,6.6 H 35 c -3.639,0 -6.6,-2.961 -6.6,-6.6 V 35 c 0,-3.639 2.961,-6.6 6.6,-6.6 H 65 M 65,27 H 35 c -4.4,0 -8,3.6 -8,8 v 30 c 0,4.4 3.6,8 8,8 h 30 c 4.4,0 8,-3.6 8,-8 V 35 c 0,-4.4 -3.6,-8 -8,-8 z"
         id="path160" />
    </g>
    <g
       id="g168"
       clip-path="url(#clipPath970)">
      <path
         fill="#b77748"
         d="m 37.744,39.767 h -5.545 c -0.766,0 -1.386,0.62 -1.386,1.386 0,0.766 0.62,1.386 1.386,1.386 h 5.545 c 0.766,0 1.386,-0.62 1.386,-1.386 10e-4,-0.766 -0.62,-1.386 -1.386,-1.386 z"
         id="path164" />
      <path
         fill="#472b29"
         d="m 37.744,43.04 h -5.545 c -1.04,0 -1.887,-0.847 -1.887,-1.887 0,-1.04 0.847,-1.887 1.887,-1.887 h 5.545 c 1.04,0 1.887,0.847 1.887,1.887 0,1.04 -0.847,1.887 -1.887,1.887 z m -5.545,-2.773 c -0.489,0 -0.887,0.397 -0.887,0.887 0,0.49 0.397,0.887 0.887,0.887 h 5.545 c 0.489,0 0.887,-0.397 0.887,-0.887 0,-0.49 -0.397,-0.887 -0.887,-0.887 z"
         id="path166" />
    </g>
    <g
       id="g176"
       clip-path="url(#clipPath966)">
      <path
         fill="#472b29"
         d="m 50,57.5 c -4.136,0 -7.5,-3.364 -7.5,-7.5 0,-4.136 3.364,-7.5 7.5,-7.5 2.676,0 5.168,1.442 6.504,3.764 0.138,0.239 0.055,0.545 -0.185,0.683 -0.238,0.136 -0.545,0.056 -0.683,-0.185 C 54.479,44.75 52.319,43.5 50,43.5 c -3.584,0 -6.5,2.916 -6.5,6.5 0,3.584 2.916,6.5 6.5,6.5 0.276,0 0.5,0.224 0.5,0.5 0,0.276 -0.224,0.5 -0.5,0.5 z"
         id="path174" />
    </g>
  </g>
  <rect
     style="fill:#0000ff;fill-opacity:0;stroke-width:0.2"
     id="rect951"
     width="70.540291"
     height="69.688354"
     x="-28.284271"
     y="-1.703872" />
</svg>
